<svg width="72" height="73" viewBox="0 0 72 73" fill="none" xmlns="http://www.w3.org/2000/svg">
<rect y="0.5" width="72" height="72" rx="36" fill="#E9F5ED"/>
<path fill-rule="evenodd" clip-rule="evenodd" d="M32.7898 24.7669C32.4651 25.0436 32.3028 25.1819 32.1294 25.2982C31.7319 25.5646 31.2855 25.7495 30.8161 25.8421C30.6113 25.8826 30.3987 25.8995 29.9734 25.9335C28.9049 26.0187 28.3706 26.0614 27.9249 26.2188C26.894 26.5829 26.0831 27.3938 25.7189 28.4248C25.5615 28.8705 25.5189 29.4048 25.4336 30.4733C25.3997 30.8985 25.3827 31.1112 25.3423 31.316C25.2496 31.7854 25.0647 32.2318 24.7983 32.6293C24.6821 32.8026 24.5437 32.965 24.267 33.2897C23.5717 34.1055 23.2241 34.5135 23.0202 34.94C22.5488 35.9264 22.5488 37.0732 23.0202 38.0597C23.2241 38.4862 23.5717 38.8941 24.267 39.71C24.5437 40.0346 24.6821 40.197 24.7983 40.3704C25.0647 40.7679 25.2496 41.2143 25.3423 41.6837C25.3827 41.8885 25.3997 42.1011 25.4336 42.5264C25.5189 43.5949 25.5615 44.1292 25.7189 44.5749C26.0831 45.6058 26.894 46.4167 27.9249 46.7809C28.3706 46.9383 28.9049 46.9809 29.9734 47.0662C30.3987 47.1001 30.6113 47.1171 30.8161 47.1575C31.2855 47.2502 31.7319 47.4351 32.1294 47.7015C32.3028 47.8177 32.4651 47.9561 32.7898 48.2328C33.6057 48.9281 34.0136 49.2757 34.4401 49.4795C35.4266 49.951 36.5734 49.951 37.5598 49.4795C37.9863 49.2757 38.3942 48.9281 39.2101 48.2328C39.5348 47.9561 39.6972 47.8177 39.8705 47.7015C40.268 47.4351 40.7144 47.2502 41.1838 47.1575C41.3886 47.1171 41.6012 47.1001 42.0265 47.0662C43.095 46.9809 43.6293 46.9383 44.075 46.7809C45.1059 46.4167 45.9169 45.6058 46.281 44.5749C46.4384 44.1292 46.4811 43.5949 46.5663 42.5264C46.6003 42.1011 46.6172 41.8885 46.6577 41.6837C46.7503 41.2143 46.9352 40.7679 47.2016 40.3704C47.3179 40.197 47.4562 40.0347 47.7329 39.71C48.4282 38.8941 48.7758 38.4862 48.9797 38.0597C49.4512 37.0732 49.4512 35.9264 48.9797 34.94C48.7758 34.5135 48.4282 34.1056 47.7329 33.2897C47.4562 32.965 47.3179 32.8026 47.2016 32.6293C46.9352 32.2318 46.7503 31.7854 46.6577 31.316C46.6172 31.1112 46.6003 30.8985 46.5663 30.4733C46.4811 29.4048 46.4384 28.8705 46.281 28.4248C45.9169 27.3938 45.1059 26.5829 44.075 26.2188C43.6293 26.0614 43.095 26.0187 42.0265 25.9335C41.6012 25.8995 41.3886 25.8826 41.1838 25.8421C40.7144 25.7495 40.268 25.5646 39.8705 25.2982C39.6971 25.1819 39.5348 25.0436 39.2101 24.7669C38.3942 24.0716 37.9863 23.724 37.5598 23.5201C36.5734 23.0486 35.4266 23.0486 34.4401 23.5201C34.0136 23.724 33.6057 24.0716 32.7898 24.7669ZM41.8313 33.6507C42.2551 33.2269 42.2551 32.5398 41.8313 32.1161C41.4075 31.6923 40.7204 31.6923 40.2966 32.1161L33.8296 38.5831L31.7032 36.4566C31.2795 36.0329 30.5924 36.0329 30.1686 36.4566C29.7448 36.8804 29.7448 37.5675 30.1686 37.9913L33.0623 40.885C33.4861 41.3088 34.1732 41.3088 34.597 40.885L41.8313 33.6507Z" fill="#009E60"/>
</svg>
