<svg width="16" height="16" viewBox="0 0 16 16" fill="none" xmlns="http://www.w3.org/2000/svg">
<path opacity="0.5" d="M2 6.9446C2 4.81288 2 3.74702 2.25168 3.38844C2.50335 3.02986 3.50555 2.6868 5.50994 2.00069L5.89182 1.86997C6.93666 1.51232 7.45907 1.3335 8 1.3335C8.54093 1.3335 9.06335 1.51232 10.1082 1.86997L10.4901 2.00069C12.4945 2.6868 13.4966 3.02986 13.7483 3.38844C14 3.74702 14 4.81288 14 6.9446C14 7.26659 14 7.61577 14 7.9944C14 11.7531 11.174 13.5772 9.40096 14.3517C8.91999 14.5618 8.67951 14.6668 8 14.6668C7.32049 14.6668 7.08001 14.5618 6.59904 14.3517C4.82597 13.5772 2 11.7531 2 7.9944C2 7.61577 2 7.26659 2 6.9446Z" fill="#0D814B" stroke="#0D814B" stroke-width="1.5"/>
<path d="M6.33334 8.2665L7.28572 9.33317L9.66668 6.6665" stroke="#0D814B" stroke-width="1.5" stroke-linecap="round" stroke-linejoin="round"/>
</svg>
