<svg width="32" height="33" viewBox="0 0 32 33" fill="none" xmlns="http://www.w3.org/2000/svg">
<path fill-rule="evenodd" clip-rule="evenodd" d="M12.7898 4.76687C12.4651 5.04358 12.3028 5.18194 12.1294 5.29816C11.7319 5.56456 11.2855 5.74946 10.8161 5.84213C10.6113 5.88256 10.3987 5.89953 9.9734 5.93347C8.90489 6.01874 8.37063 6.06137 7.9249 6.21881C6.89397 6.58294 6.08307 7.39385 5.71893 8.42478C5.56149 8.87051 5.51886 9.40476 5.43359 10.4733C5.39966 10.8985 5.38269 11.1112 5.34226 11.316C5.24958 11.7854 5.06468 12.2318 4.79828 12.6293C4.68206 12.8026 4.5437 12.965 4.26699 13.2897C3.57174 14.1055 3.2241 14.5135 3.02025 14.94C2.54875 15.9264 2.54875 17.0732 3.02025 18.0597C3.2241 18.4862 3.57173 18.8941 4.26699 19.71C4.54367 20.0346 4.68207 20.197 4.79828 20.3704C5.06468 20.7679 5.24958 21.2143 5.34226 21.6837C5.38269 21.8885 5.39966 22.1011 5.43359 22.5264C5.51886 23.5949 5.56149 24.1292 5.71893 24.5749C6.08307 25.6058 6.89397 26.4167 7.9249 26.7809C8.37063 26.9383 8.90489 26.9809 9.9734 27.0662C10.3987 27.1001 10.6113 27.1171 10.8161 27.1575C11.2855 27.2502 11.7319 27.4351 12.1294 27.7015C12.3028 27.8177 12.4651 27.9561 12.7898 28.2328C13.6057 28.9281 14.0136 29.2757 14.4401 29.4795C15.4266 29.951 16.5734 29.951 17.5598 29.4795C17.9863 29.2757 18.3942 28.9281 19.2101 28.2328C19.5348 27.9561 19.6972 27.8177 19.8705 27.7015C20.268 27.4351 20.7144 27.2502 21.1838 27.1575C21.3886 27.1171 21.6012 27.1001 22.0265 27.0662C23.095 26.9809 23.6293 26.9383 24.075 26.7809C25.1059 26.4167 25.9169 25.6058 26.281 24.5749C26.4384 24.1292 26.4811 23.5949 26.5663 22.5264C26.6003 22.1011 26.6172 21.8885 26.6577 21.6837C26.7503 21.2143 26.9352 20.7679 27.2016 20.3704C27.3179 20.197 27.4562 20.0347 27.7329 19.71C28.4282 18.8941 28.7758 18.4862 28.9797 18.0597C29.4512 17.0732 29.4512 15.9264 28.9797 14.94C28.7758 14.5135 28.4282 14.1056 27.7329 13.2897C27.4562 12.965 27.3179 12.8026 27.2016 12.6293C26.9352 12.2318 26.7503 11.7854 26.6577 11.316C26.6172 11.1112 26.6003 10.8985 26.5663 10.4733C26.4811 9.40476 26.4384 8.87051 26.281 8.42478C25.9169 7.39385 25.1059 6.58294 24.075 6.21881C23.6293 6.06137 23.095 6.01874 22.0265 5.93347C21.6012 5.89953 21.3886 5.88256 21.1838 5.84213C20.7144 5.74946 20.268 5.56456 19.8705 5.29816C19.6971 5.18194 19.5348 5.04358 19.2101 4.76687C18.3942 4.07161 17.9863 3.72398 17.5598 3.52012C16.5734 3.04863 15.4266 3.04863 14.4401 3.52012C14.0136 3.72398 13.6057 4.07161 12.7898 4.76687ZM21.8313 13.6507C22.2551 13.2269 22.2551 12.5398 21.8313 12.1161C21.4075 11.6923 20.7204 11.6923 20.2966 12.1161L13.8296 18.5831L11.7032 16.4566C11.2795 16.0329 10.5924 16.0329 10.1686 16.4566C9.74483 16.8804 9.74483 17.5675 10.1686 17.9913L13.0623 20.885C13.4861 21.3088 14.1732 21.3088 14.597 20.885L21.8313 13.6507Z" fill="#009E60"/>
</svg>
